<svg width="24" height="24" viewBox="0 0 24 24" fill="none" xmlns="http://www.w3.org/2000/svg">
<circle cx="12" cy="12" r="11" stroke="#000100" stroke-width="2"/>
<path d="M12 7.32001C12.858 7.32001 13.56 8.02201 13.56 8.88001C13.56 9.73801 12.858 10.44 12 10.44C11.142 10.44 10.44 9.73801 10.44 8.88001C10.44 8.02201 11.142 7.32001 12 7.32001ZM12 15.12C14.106 15.12 16.524 16.1262 16.68 16.68H7.32001C7.49941 16.1184 9.90181 15.12 12 15.12ZM12 5.76001C10.2762 5.76001 8.88001 7.15621 8.88001 8.88001C8.88001 10.6038 10.2762 12 12 12C13.7238 12 15.12 10.6038 15.12 8.88001C15.12 7.15621 13.7238 5.76001 12 5.76001ZM12 13.56C9.91741 13.56 5.76001 14.6052 5.76001 16.68V18.24H18.24V16.68C18.24 14.6052 14.0826 13.56 12 13.56Z" fill="#000100"/>
</svg>
