<svg width="24" height="24" viewBox="0 0 24 24" fill="none" xmlns="http://www.w3.org/2000/svg">
<circle cx="12" cy="12" r="11" stroke="#000100" stroke-width="2"/>
<path d="M11.9998 7.32001C12.8578 7.32001 13.5598 8.02201 13.5598 8.88001C13.5598 9.73801 12.8578 10.44 11.9998 10.44C11.1418 10.44 10.4398 9.73801 10.4398 8.88001C10.4398 8.02201 11.1418 7.32001 11.9998 7.32001ZM11.9998 15.12C14.1058 15.12 16.5238 16.1262 16.6798 16.68H7.31977C7.49917 16.1184 9.90157 15.12 11.9998 15.12ZM11.9998 5.76001C10.276 5.76001 8.87977 7.15621 8.87977 8.88001C8.87977 10.6038 10.276 12 11.9998 12C13.7236 12 15.1198 10.6038 15.1198 8.88001C15.1198 7.15621 13.7236 5.76001 11.9998 5.76001ZM11.9998 13.56C9.91717 13.56 5.75977 14.6052 5.75977 16.68V18.24H18.2398V16.68C18.2398 14.6052 14.0824 13.56 11.9998 13.56Z" fill="#000100"/>
</svg>
