<svg width="24" height="24" viewBox="0 0 24 24" fill="none" xmlns="http://www.w3.org/2000/svg">
<circle cx="12" cy="12" r="11" stroke="#000100" stroke-width="2"/>
<path d="M12 7.31977C12.858 7.31977 13.56 8.02177 13.56 8.87977C13.56 9.73777 12.858 10.4398 12 10.4398C11.142 10.4398 10.44 9.73777 10.44 8.87977C10.44 8.02177 11.142 7.31977 12 7.31977ZM12 15.1198C14.106 15.1198 16.524 16.126 16.68 16.6798H7.32001C7.49941 16.1182 9.90181 15.1198 12 15.1198ZM12 5.75977C10.2762 5.75977 8.88001 7.15597 8.88001 8.87977C8.88001 10.6036 10.2762 11.9998 12 11.9998C13.7238 11.9998 15.12 10.6036 15.12 8.87977C15.12 7.15597 13.7238 5.75977 12 5.75977ZM12 13.5598C9.91741 13.5598 5.76001 14.605 5.76001 16.6798V18.2398H18.24V16.6798C18.24 14.605 14.0826 13.5598 12 13.5598Z" fill="#000100"/>
</svg>
