<svg width="24" height="24" viewBox="0 0 24 24" fill="none" xmlns="http://www.w3.org/2000/svg">
<path fill-rule="evenodd" clip-rule="evenodd" d="M21.3601 9.816C20.9881 6 18.7321 0 11.7601 0C4.78806 0 2.53206 6 2.16006 9.816C0.855071 10.3113 -0.00571744 11.5642 2.85921e-05 12.96V14.64C2.85921e-05 16.4957 1.50438 18 3.36006 18C5.21573 18 6.72006 16.4957 6.72006 14.64V12.96C6.71402 11.5943 5.88485 10.3672 4.62006 9.852C4.86006 7.644 6.03606 2.4 11.7601 2.4C17.4841 2.4 18.6481 7.644 18.8881 9.852C17.6258 10.3683 16.8008 11.5963 16.8001 12.96V14.64C16.8053 15.93 17.546 17.1039 18.7081 17.664C18.2041 18.612 16.9201 19.896 13.7641 20.28C13.1332 19.322 11.9126 18.9444 10.851 19.3787C9.78934 19.813 9.1834 20.9378 9.40479 22.0632C9.62618 23.1887 10.613 24 11.7601 24C12.6665 23.995 13.4927 23.4797 13.8961 22.668C19.0441 22.08 20.6881 19.428 21.2041 17.868C22.6 17.4158 23.5389 16.1073 23.5201 14.64V12.96C23.5258 11.5642 22.665 10.3113 21.3601 9.816ZM4.32006 14.64C4.32006 15.1702 3.89025 15.6 3.36006 15.6C2.82986 15.6 2.40006 15.1702 2.40006 14.64V12.96C2.40006 12.617 2.58303 12.3001 2.88006 12.1286C3.17708 11.9571 3.54303 11.9571 3.84006 12.1286C4.13708 12.3001 4.32006 12.617 4.32006 12.96V14.64ZM19.2001 12.96C19.2001 12.4298 19.6299 12 20.1601 12C20.6903 12 21.1201 12.4298 21.1201 12.96V14.64C21.1201 15.1702 20.6903 15.6 20.1601 15.6C19.6299 15.6 19.2001 15.1702 19.2001 14.64V12.96Z" fill="#2F9C95"/>
</svg>
