<svg width="26" height="23" viewBox="0 0 26 23" fill="none" xmlns="http://www.w3.org/2000/svg">
<path d="M3.1425 12.8181L12.2209 21.3463C12.5336 21.64 12.6899 21.7869 12.8743 21.8231C12.9573 21.8394 13.0427 21.8394 13.1258 21.8231C13.3101 21.7869 13.4664 21.64 13.7792 21.3463L22.8575 12.8181C25.4118 10.4187 25.7219 6.4701 23.5737 3.70123L23.1698 3.18059C20.5999 -0.131781 15.4412 0.423723 13.6355 4.20731C13.3804 4.74176 12.6197 4.74176 12.3645 4.20731C10.5588 0.423723 5.4002 -0.131781 2.83026 3.1806L2.42633 3.70123C0.27806 6.4701 0.58824 10.4187 3.1425 12.8181Z" stroke="#2F9C95" stroke-width="2"/>
</svg>
